<?xml version="1.0" standalone="no"?>
<!DOCTYPE svg PUBLIC "-//W3C//DTD SVG 20010904//EN"
 "http://www.w3.org/TR/2001/REC-SVG-20010904/DTD/svg10.dtd">
<svg version="1.0" xmlns="http://www.w3.org/2000/svg"
 width="2363.000000pt" height="2363.000000pt" viewBox="0 0 2363.000000 2363.000000"
 preserveAspectRatio="xMidYMid meet">

<g transform="translate(0.000000,2363.000000) scale(0.100000,-0.100000)"
fill="#000000" stroke="none">
<path d="M11435 18709 c-1409 -52 -2781 -538 -3910 -1386 -472 -354 -913 -782
-1282 -1243 -692 -866 -1169 -1890 -1387 -2980 -62 -312 -108 -678 -122 -969
l-7 -140 -36 -5 c-20 -3 -175 -26 -346 -51 -518 -76 -951 -147 -1502 -246
l-122 -22 129 -136 c70 -75 152 -159 182 -188 l53 -52 320 55 c524 89 1690
264 1760 264 8 0 17 14 21 35 24 131 178 211 299 156 47 -21 103 -76 111 -108
4 -13 10 -23 16 -23 5 0 122 13 261 30 1321 156 2670 260 4027 310 1195 44
2654 38 3885 -15 2094 -91 4210 -317 6215 -665 l285 -49 168 171 c92 94 172
178 177 188 8 16 -6 20 -151 49 -302 59 -1249 212 -1694 274 l-90 12 -7 120
c-79 1355 -514 2600 -1287 3685 -388 545 -899 1076 -1432 1486 -1046 806
-2273 1289 -3604 1418 -141 14 -638 38 -705 34 -14 -1 -115 -5 -225 -9z m21
-544 c25 -14 57 -45 72 -67 24 -36 27 -51 27 -119 0 -70 -3 -82 -30 -121 -44
-62 -122 -101 -193 -95 -68 7 -129 41 -166 95 -42 59 -48 150 -16 217 55 114
195 155 306 90z m917 4 c84 -23 148 -112 148 -205 0 -106 -66 -189 -171 -214
-97 -23 -204 35 -245 132 -32 78 -12 171 50 233 59 59 134 78 218 54z m-1868
-134 c85 -49 126 -167 91 -259 -35 -91 -140 -156 -228 -142 -92 15 -157 71
-183 159 -32 108 27 222 137 264 49 19 131 9 183 -22z m2855 -48 c30 -16 54
-39 75 -72 26 -42 30 -58 30 -121 0 -64 -3 -77 -30 -116 -35 -50 -120 -98
-173 -98 -126 0 -221 94 -222 219 0 169 166 267 320 188z m-3832 -199 c33 -8
60 -25 92 -57 93 -93 93 -211 1 -302 -88 -89 -205 -92 -297 -7 -124 115 -81
305 84 364 47 17 62 17 120 2z m4727 -97 c153 -69 169 -286 29 -381 -52 -34
-154 -40 -210 -12 -206 106 -139 412 91 412 28 0 68 -9 90 -19z m-5589 -316
c83 -24 154 -119 154 -205 0 -110 -110 -220 -221 -220 -86 0 -179 70 -206 157
-14 45 -15 60 -4 109 11 46 22 66 60 104 66 66 128 82 217 55z m6460 -131 c81
-42 130 -157 104 -249 -28 -101 -118 -161 -230 -153 -215 15 -271 305 -78 402
63 33 140 32 204 0z m-2228 -78 c79 -36 84 -37 107 -22 26 17 130 22 153 8 9
-7 12 -75 10 -308 l-3 -299 -66 -3 c-45 -2 -69 1 -76 10 -6 7 -20 56 -33 108
-32 132 -65 217 -106 273 -119 163 -326 75 -342 -143 -11 -163 55 -294 258
-515 339 -369 423 -492 481 -701 32 -119 37 -319 11 -446 -35 -169 -120 -310
-242 -402 -96 -71 -155 -90 -285 -91 -94 0 -123 4 -204 29 -90 29 -95 29 -123
13 -44 -25 -144 -23 -158 2 -13 26 -14 650 0 685 9 24 14 26 75 26 77 0 74 5
99 -142 38 -223 99 -349 196 -398 208 -106 404 114 362 410 -26 182 -92 285
-396 614 -178 193 -227 257 -277 361 -65 135 -82 223 -76 394 4 115 9 160 27
211 34 100 78 176 139 239 91 95 182 133 306 128 67 -3 93 -9 163 -41z m-2000
-43 c3 -62 3 -62 -48 -117 l-50 -56 0 -1023 c0 -879 2 -1025 15 -1043 8 -12
30 -37 50 -57 32 -32 35 -40 35 -90 0 -34 -5 -59 -14 -66 -9 -8 -95 -11 -292
-9 l-279 3 -3 64 -3 64 48 49 48 49 3 1030 2 1030 -50 53 c-49 51 -50 55 -50
113 0 33 3 63 7 66 4 4 135 6 292 5 l286 -3 3 -62z m-3024 -285 c79 -24 146
-118 146 -204 0 -160 -170 -264 -316 -194 -124 61 -158 230 -66 333 64 70 144
92 236 65z m8019 -154 c94 -48 141 -146 117 -246 -17 -68 -86 -141 -150 -158
-214 -57 -368 194 -218 356 65 71 167 90 251 48z m-4201 -144 c66 -24 148
-104 180 -175 18 -41 23 -68 23 -146 0 -90 -2 -99 -39 -173 -32 -66 -58 -97
-158 -197 l-120 -118 43 -128 c44 -134 151 -399 167 -415 16 -16 64 149 70
237 5 92 -9 120 -69 140 -33 11 -34 14 -37 69 l-3 56 203 -2 203 -3 0 -60 0
-60 -42 -20 c-24 -11 -49 -29 -57 -41 -8 -11 -33 -84 -56 -163 -22 -78 -59
-185 -82 -237 l-40 -95 36 -54 c57 -81 136 -129 206 -123 35 3 35 3 38 -41 3
-38 -1 -48 -30 -79 -67 -70 -170 -91 -256 -52 -24 11 -69 44 -101 74 l-57 55
-50 -41 c-27 -22 -78 -55 -114 -72 -58 -28 -75 -31 -155 -31 -110 0 -163 21
-233 93 -92 95 -138 236 -129 398 9 157 73 292 225 470 l60 72 -23 93 c-53
209 -68 375 -44 491 27 128 117 248 212 281 62 22 166 21 229 -3z m-4531 -351
c88 -27 148 -110 149 -205 0 -65 -20 -113 -67 -159 -32 -31 -109 -65 -148 -65
-39 0 -116 34 -148 65 -47 46 -67 94 -67 159 1 147 138 247 281 205z m9390
-170 c81 -28 149 -118 149 -199 0 -124 -96 -223 -216 -223 -185 0 -286 214
-167 353 61 71 149 97 234 69z m-9960 -596 c75 -39 112 -93 117 -176 7 -116
-57 -202 -171 -227 -133 -30 -257 71 -257 210 0 166 163 267 311 193z m10572
-195 c22 -13 55 -43 72 -66 27 -40 30 -51 30 -121 0 -68 -3 -83 -27 -119 -15
-22 -49 -54 -75 -69 -98 -57 -227 -26 -291 69 -23 36 -27 51 -27 118 0 67 4
82 27 118 65 97 188 127 291 70z m-11044 -641 c24 -12 57 -41 74 -65 26 -36
32 -54 35 -110 3 -55 -1 -75 -20 -112 -81 -157 -302 -157 -385 0 -61 115 7
272 134 306 57 15 103 10 162 -19z m11500 -214 c58 -36 101 -114 101 -183 0
-71 -43 -147 -105 -185 -40 -25 -59 -30 -109 -30 -129 1 -216 88 -216 215 0
174 181 274 329 183z m-1993 -17 c17 -13 19 -27 18 -143 -1 -235 -85 -589
-216 -918 l-40 -100 4 -135 c8 -232 39 -261 157 -142 76 76 149 181 204 294
62 126 187 219 278 206 27 -4 29 -2 29 27 0 43 25 75 59 75 53 0 54 -10 49
-263 -3 -128 -3 -238 -1 -244 10 -27 37 -10 120 72 l85 85 -9 63 c-20 149 10
265 79 307 45 27 64 25 100 -11 29 -28 30 -33 25 -87 -4 -40 -19 -83 -50 -144
l-45 -86 25 -74 c13 -40 28 -76 32 -81 4 -4 54 27 110 68 57 42 110 75 119 73
42 -8 19 -37 -92 -121 l-115 -87 16 -42 c9 -25 16 -76 17 -123 1 -97 -26 -166
-85 -220 -95 -85 -214 -12 -195 119 9 60 56 153 106 209 l43 48 -28 70 c-16
38 -31 69 -35 69 -4 0 -23 -24 -44 -54 -48 -70 -136 -153 -172 -162 -33 -8
-68 9 -98 49 -18 25 -21 45 -24 168 l-4 140 -65 -115 c-74 -129 -142 -219
-192 -253 -42 -28 -51 -28 -85 -2 -19 15 -26 30 -26 56 l0 35 -45 -60 c-174
-232 -315 -186 -343 112 l-7 76 -43 -29 c-36 -24 -74 -39 -138 -56 -6 -2 -25
-28 -42 -57 -45 -81 -92 -118 -149 -118 -41 0 -50 5 -85 41 -26 28 -43 58 -55
99 l-16 59 -76 -70 c-204 -188 -365 -170 -396 44 l-6 48 -48 -63 c-113 -149
-196 -184 -253 -108 -24 33 -40 131 -32 204 7 58 7 58 -17 50 -81 -29 -144 9
-181 109 -20 55 -23 58 -36 41 -20 -27 -75 -145 -148 -319 -71 -170 -90 -193
-139 -161 l-28 18 6 140 7 139 -28 -20 c-16 -11 -58 -51 -93 -88 l-64 -69 -33
-173 c-43 -224 -72 -325 -127 -437 -134 -274 -323 -208 -234 82 39 127 121
275 237 427 44 58 45 61 68 210 13 84 24 161 24 172 0 11 -28 -29 -62 -88
-100 -171 -166 -237 -236 -237 -38 0 -78 34 -88 76 -20 79 55 276 141 372 52
58 116 88 166 78 38 -7 59 -23 59 -43 0 -12 -8 -13 -39 -8 -72 12 -122 -31
-180 -155 -36 -77 -61 -204 -44 -221 25 -25 170 145 265 311 56 97 102 123
134 75 16 -24 15 -35 -5 -171 -12 -81 -20 -149 -17 -152 3 -3 28 15 54 39 27
24 65 58 84 74 34 29 35 33 48 145 14 124 20 144 50 160 26 14 68 -4 75 -32 3
-13 -3 -95 -15 -183 -34 -273 -36 -265 28 -105 93 231 116 270 162 270 38 0
58 -27 83 -110 27 -90 55 -116 104 -99 28 9 33 16 39 57 3 26 13 57 20 70 18
28 64 29 88 3 17 -19 17 -26 2 -136 -22 -160 -20 -255 5 -255 14 0 134 126
183 190 23 30 56 85 74 121 57 118 189 239 260 239 35 0 62 -35 62 -78 0 -51
-28 -132 -46 -132 -11 0 -12 15 -7 77 l6 77 -34 -21 c-57 -35 -132 -149 -165
-250 -35 -109 -39 -209 -10 -242 49 -54 165 -2 319 142 30 28 37 42 37 73 0
55 25 143 48 168 11 11 28 41 39 66 62 142 233 151 294 16 25 -56 25 -174 -1
-257 -10 -35 -17 -65 -15 -67 8 -8 93 37 128 68 36 31 37 33 37 105 0 217 71
610 160 890 64 198 113 257 176 211z m-8071 -275 c51 -24 88 -63 117 -126 20
-44 23 -65 23 -185 0 -113 -3 -140 -18 -163 -20 -31 -60 -36 -88 -11 -16 14
-17 30 -12 140 7 146 -8 202 -61 235 -123 75 -437 -99 -547 -304 -26 -48 -33
-74 -34 -117 0 -103 44 -139 284 -224 166 -60 233 -97 286 -159 l34 -40 54 42
c53 40 80 50 91 32 11 -17 -5 -39 -65 -87 l-59 -47 0 -67 c0 -121 -48 -238
-137 -331 -92 -97 -198 -128 -242 -73 -12 15 -21 41 -21 59 0 74 114 237 249
356 34 29 61 58 61 63 0 22 -51 74 -98 99 -28 15 -116 50 -197 77 -166 57
-210 77 -259 121 -101 88 -103 253 -4 398 94 137 244 253 396 307 85 30 189
32 247 5z m5045 -29 c36 -37 45 -101 37 -282 -5 -112 -40 -428 -62 -571 l-6
-36 62 -7 c68 -7 85 -16 76 -40 -5 -12 -22 -16 -76 -16 l-69 0 -5 -32 c-4 -18
-27 -179 -52 -358 -25 -179 -49 -341 -53 -360 -13 -64 -98 -81 -124 -24 -16
36 3 183 99 742 l6 32 -74 0 c-66 0 -257 -23 -263 -32 -1 -1 -24 -41 -51 -88
-76 -134 -176 -294 -193 -307 -24 -19 -50 -16 -63 8 -9 18 -5 29 22 72 75 120
178 292 175 294 -1 1 -34 -6 -72 -17 -38 -11 -81 -20 -96 -20 -51 0 -65 74
-18 97 14 6 76 21 138 31 62 11 115 22 117 23 11 13 189 381 270 559 110 244
155 324 193 345 38 20 50 19 82 -13z m-6857 -348 c97 -33 164 -154 138 -250
-22 -83 -82 -143 -165 -165 -125 -34 -266 78 -266 211 0 66 40 141 96 179 62
43 123 50 197 25z m8388 -44 c31 -17 23 -67 -25 -145 -33 -55 -47 -70 -65 -70
-43 0 -48 27 -21 106 38 109 63 134 111 109z m-4647 -109 c15 -16 17 -30 11
-71 -8 -57 -25 -80 -60 -80 -33 0 -46 29 -38 86 10 74 51 104 87 65z m840 0
c15 -16 17 -30 11 -71 -8 -57 -25 -80 -60 -80 -33 0 -46 29 -38 86 10 74 51
104 87 65z m858 -22 c29 -28 30 -33 25 -87 -4 -40 -19 -83 -50 -144 l-45 -86
25 -74 c13 -40 28 -76 32 -81 4 -4 54 27 110 68 57 42 110 75 119 73 42 -8 19
-37 -92 -121 l-115 -87 16 -42 c9 -25 16 -76 17 -123 1 -97 -26 -166 -85 -220
-95 -85 -214 -12 -195 119 9 60 56 153 106 209 l43 48 -28 70 c-16 38 -30 69
-32 69 -2 0 -27 -15 -56 -34 -44 -29 -90 -48 -143 -62 -6 -1 -25 -27 -42 -56
-45 -81 -92 -118 -149 -118 -41 0 -50 5 -84 40 -25 26 -44 60 -54 95 l-16 55
-38 -47 c-52 -66 -115 -121 -147 -129 -68 -17 -111 30 -127 139 l-11 75 -89
-84 c-142 -134 -252 -174 -335 -124 -35 22 -71 87 -72 130 -1 50 -15 53 -44
11 -40 -58 -129 -139 -161 -147 -36 -9 -73 5 -96 36 -26 35 -41 123 -33 195
l6 60 -80 -3 c-59 -3 -87 0 -110 12 -17 9 -33 16 -35 16 -2 0 -23 -42 -47 -92
-24 -51 -59 -119 -78 -150 -53 -92 -117 -111 -162 -48 -25 35 -50 143 -50 218
0 51 -1 53 -22 45 -80 -29 -144 10 -180 110 -20 55 -23 58 -36 41 -20 -27 -75
-145 -148 -319 -71 -170 -90 -193 -139 -161 l-28 18 6 132 6 131 -102 -101
c-62 -61 -123 -112 -154 -128 -138 -69 -232 1 -233 173 0 92 21 175 70 273 50
100 85 145 139 180 52 33 89 36 122 9 69 -55 -16 -231 -172 -358 -23 -17 -28
-32 -34 -89 -7 -73 4 -120 29 -130 39 -15 170 73 284 189 l63 64 15 114 c20
153 21 156 48 174 30 20 73 5 81 -27 3 -13 -3 -95 -15 -183 -34 -273 -36 -265
28 -105 93 231 116 270 162 270 38 0 58 -27 83 -110 26 -86 57 -117 99 -101
23 9 26 16 32 83 12 122 34 222 53 236 27 19 61 14 78 -12 14 -21 14 -32 0
-112 -20 -111 -30 -320 -20 -399 l7 -60 23 29 c36 45 165 301 165 327 0 33 52
139 82 167 24 22 26 22 47 5 21 -17 21 -20 8 -58 -8 -23 -31 -73 -51 -112
l-36 -72 27 -20 c19 -16 40 -21 82 -21 93 0 98 4 106 68 4 32 13 67 21 80 18
28 64 29 89 2 17 -19 18 -27 6 -98 -17 -112 -24 -264 -12 -282 9 -13 14 -12
38 6 33 24 183 195 183 208 0 5 15 41 34 80 60 124 191 246 264 246 35 0 62
-35 62 -78 0 -51 -28 -132 -46 -132 -11 0 -12 15 -7 77 l6 77 -34 -21 c-57
-35 -132 -149 -165 -250 -35 -109 -39 -209 -10 -242 42 -47 145 -10 267 97
114 99 127 119 140 208 6 44 18 89 25 102 18 28 64 29 89 2 17 -19 17 -27 7
-98 -28 -179 -27 -292 1 -292 18 0 167 160 172 184 2 12 9 50 16 85 7 37 22
75 35 90 12 15 30 46 39 69 57 143 234 153 296 18 25 -56 25 -174 -1 -257 -10
-35 -17 -65 -15 -67 8 -8 111 47 134 72 23 24 23 27 11 108 -17 126 15 237 83
278 44 27 63 25 99 -11z m6703 -40 c57 -16 128 -92 144 -153 54 -217 -216
-366 -367 -202 -100 108 -72 271 57 338 57 30 102 35 166 17z m-12312 -742
c123 -73 142 -237 38 -338 -201 -195 -496 90 -307 297 72 79 177 95 269 41z
m12514 -218 c75 -36 123 -115 123 -201 0 -53 -48 -138 -97 -172 -118 -82 -288
-20 -328 119 -21 71 -13 121 28 182 60 89 177 119 274 72z"/>
<path d="M11543 16430 c-47 -19 -58 -55 -58 -180 1 -108 38 -350 54 -350 11 0
90 124 111 175 50 117 48 285 -3 334 -27 24 -73 34 -104 21z"/>
<path d="M11332 15463 c-81 -128 -83 -281 -5 -440 74 -151 176 -199 270 -127
l33 25 -20 29 c-37 52 -139 273 -194 419 l-53 143 -31 -49z"/>
<path d="M15526 14023 c-38 -155 -116 -597 -103 -583 11 12 71 239 97 370 29
146 56 347 48 356 -3 2 -21 -62 -42 -143z"/>
<path d="M16481 13445 c-14 -32 -28 -135 -18 -135 12 0 38 101 35 132 l-4 33
-13 -30z"/>
<path d="M14968 13440 c-43 -25 -62 -71 -64 -154 -3 -71 0 -86 21 -123 24 -40
89 -83 128 -83 41 0 79 240 47 300 -33 64 -84 87 -132 60z"/>
<path d="M15988 13344 c-15 -8 -44 -36 -63 -62 -42 -54 -132 -232 -140 -277
-6 -28 -4 -27 42 24 70 78 223 293 223 314 0 21 -25 22 -62 1z"/>
<path d="M14872 13043 c9 -131 55 -158 128 -76 l41 47 -52 18 c-30 10 -69 33
-87 51 l-34 32 4 -72z"/>
<path d="M16436 12864 c-36 -49 -66 -127 -66 -170 0 -23 24 -54 42 -54 20 0
65 60 78 105 13 47 8 141 -9 158 -6 6 -23 -9 -45 -39z"/>
<path d="M13043 12692 c-94 -155 -153 -305 -153 -393 l0 -53 31 30 c35 34 80
123 110 219 19 64 60 257 55 262 -1 1 -20 -28 -43 -65z"/>
<path d="M7398 12912 c-141 -144 -209 -272 -145 -272 54 0 143 88 188 185 26
54 54 163 46 172 -2 1 -42 -36 -89 -85z"/>
<path d="M12502 13923 c-22 -43 -70 -148 -107 -233 -37 -85 -107 -237 -156
-337 l-88 -183 150 0 c82 0 149 3 149 8 0 4 13 84 30 177 48 276 70 445 71
544 0 51 -1 95 -4 97 -2 3 -22 -30 -45 -73z"/>
<path d="M11121 13445 c-14 -32 -28 -135 -18 -135 12 0 38 101 35 132 l-4 33
-13 -30z"/>
<path d="M10698 13440 c-43 -25 -62 -71 -64 -154 -3 -71 0 -86 21 -123 24 -40
89 -83 128 -83 41 0 79 240 47 300 -33 64 -84 87 -132 60z"/>
<path d="M7972 13363 c-17 -27 -38 -66 -47 -88 l-16 -40 25 29 c29 35 81 134
74 142 -3 2 -19 -17 -36 -43z"/>
<path d="M10602 13043 c9 -131 55 -158 128 -76 l41 47 -52 18 c-30 10 -69 33
-87 51 l-34 32 4 -72z"/>
<path d="M11076 12864 c-36 -49 -66 -127 -66 -170 0 -23 24 -54 42 -54 20 0
65 60 78 105 13 47 8 141 -9 158 -6 6 -23 -9 -45 -39z"/>
<path d="M10570 11930 c-1542 -38 -3024 -139 -4480 -305 -465 -53 -480 -56
-480 -72 0 -8 -7 -28 -16 -46 -73 -144 -263 -164 -365 -37 -21 26 -41 40 -55
40 -111 0 -2008 -295 -2002 -311 2 -3 192 -204 424 -445 232 -242 440 -460
464 -487 l43 -47 -232 -716 c-128 -394 -231 -718 -228 -720 2 -2 66 7 143 21
1685 295 3692 517 5514 610 606 30 1635 63 1647 52 3 -4 -7 -27 -21 -52 -21
-36 -32 -45 -54 -45 -245 -1 -1159 -34 -1651 -60 l-373 -20 -71 25 c-111 40
-227 44 -352 12 -55 -15 -134 -39 -175 -55 -56 -22 -101 -31 -175 -36 -467
-32 -1946 -181 -1945 -195 1 -4 24 -17 53 -31 120 -58 153 -218 65 -324 -119
-145 -348 -81 -383 106 -15 78 39 181 120 227 17 10 15 11 -15 6 -19 -3 -177
-23 -350 -45 -656 -85 -1995 -291 -2015 -311 -6 -6 -155 -472 -152 -475 2 -2
75 10 162 25 465 83 1882 300 1890 289 1 -2 26 -48 55 -103 521 -976 1330
-1861 2288 -2504 292 -196 801 -469 1136 -610 1783 -750 3793 -734 5551 44
1398 619 2587 1713 3309 3045 31 58 60 108 64 112 13 13 1158 -160 1742 -263
150 -26 276 -46 279 -44 2 3 -25 96 -61 208 -37 111 -69 216 -73 234 -8 38 33
27 -385 98 -1183 199 -2442 361 -3620 465 -233 21 -247 23 -290 50 -25 16 -74
43 -110 60 l-65 31 65 -6 c36 -3 196 -17 355 -30 1202 -104 2585 -283 3764
-486 128 -22 234 -39 236 -37 1 2 -104 328 -233 726 l-235 722 53 58 c30 31
236 248 459 480 223 233 407 427 409 431 5 14 -819 148 -1538 251 -228 33
-424 60 -436 60 l-21 0 20 -57 c16 -50 17 -65 8 -107 -24 -106 -92 -167 -192
-174 -78 -6 -138 17 -182 69 -73 84 -75 192 -7 280 l28 36 -176 22 c-1474 184
-2907 293 -4592 352 -391 13 -2116 19 -2540 9z m-2323 -211 c140 -49 329 -145
357 -182 50 -67 69 -119 70 -189 1 -66 2 -69 45 -110 27 -26 41 -35 36 -23
-25 61 -14 249 21 390 21 83 29 88 71 40 40 -46 133 -199 163 -269 53 -125
-11 -295 -107 -284 -18 2 -33 3 -33 3 0 -1 44 -42 98 -92 l97 -90 1 101 c1
105 25 255 50 315 l14 34 26 -24 c32 -30 110 -152 160 -249 44 -87 50 -155 21
-231 -21 -55 -45 -79 -87 -88 l-32 -6 111 -103 c106 -99 111 -102 105 -70 -3
18 -7 38 -9 45 -11 37 27 294 55 367 l11 29 25 -24 c67 -63 204 -316 204 -377
0 -100 -57 -194 -119 -196 -17 -1 -31 -2 -31 -2 0 -1 47 -45 105 -99 98 -90
104 -94 89 -58 -13 30 -15 58 -11 128 9 136 44 285 66 285 16 0 97 -120 151
-223 37 -72 50 -108 50 -140 0 -101 -46 -177 -108 -177 l-36 0 69 -72 c39 -40
50 -55 25 -33 -25 22 -57 51 -72 64 l-26 23 1 -36 c3 -94 -145 -146 -273 -96
-110 43 -270 142 -270 166 0 36 336 93 410 70 29 -10 35 -15 -92 98 l-88 78 0
-30 c0 -74 -109 -139 -213 -129 -59 5 -288 116 -352 171 l-39 33 30 16 c54 28
234 61 336 61 54 1 98 1 98 2 0 0 -57 51 -126 113 -84 75 -123 105 -118 90 32
-93 -46 -163 -181 -164 -66 0 -78 4 -185 57 -113 56 -210 121 -217 145 -5 13
53 32 172 58 100 22 236 30 276 17 31 -10 28 -6 -36 54 -38 36 -90 82 -115
104 l-46 38 4 -32 c9 -74 -102 -143 -212 -134 -85 7 -381 165 -381 203 0 30
295 91 400 83 l62 -5 -39 35 c-39 36 -42 36 -127 37 -147 0 -209 49 -319 249
-55 101 -102 214 -102 245 0 28 12 27 117 -10z m2651 -236 c3 -38 0 -43 -28
-58 -72 -37 -70 -27 -70 -315 l0 -260 185 0 185 0 0 244 c0 135 -4 256 -10
270 -5 14 -24 35 -42 45 -53 32 -59 40 -56 79 l3 37 290 0 290 0 3 -43 c3 -39
0 -44 -29 -60 -75 -40 -69 23 -69 -702 0 -725 -6 -662 69 -702 29 -16 32 -21
29 -60 l-3 -43 -290 0 -290 0 -3 24 c-6 42 7 66 48 89 23 13 45 34 50 48 6 14
10 159 10 325 l0 299 -185 0 -185 0 0 -313 c0 -341 -2 -331 60 -365 32 -17 35
-23 35 -63 l0 -44 -290 0 -290 0 -3 43 c-3 39 0 44 29 60 75 40 69 -23 69 702
0 725 6 662 -68 702 -28 15 -32 23 -32 56 0 21 3 42 7 45 4 4 135 6 292 5
l286 -3 3 -42z m2144 32 c237 -36 402 -129 477 -270 24 -45 26 -60 26 -160 0
-100 -3 -115 -28 -166 -32 -66 -104 -137 -175 -173 -109 -55 -306 -96 -464
-96 l-68 0 0 -286 c0 -177 4 -293 10 -305 6 -10 29 -28 51 -39 38 -20 40 -23
37 -63 l-3 -42 -290 0 -290 0 -3 43 c-3 39 0 44 29 60 75 40 69 -23 69 702 0
725 6 662 -68 702 -28 15 -32 23 -32 56 0 21 3 42 7 45 13 14 615 7 715 -8z
m2298 -19 c-33 -88 -170 -302 -237 -370 -67 -68 -174 -100 -258 -76 -43 12
-47 11 -85 -15 -55 -38 -61 -50 -22 -42 41 8 123 -7 242 -45 105 -33 190 -73
190 -88 0 -23 -271 -136 -373 -154 -59 -11 -143 18 -190 65 -36 36 -39 43 -35
83 l5 43 -107 -81 -106 -81 64 -8 c73 -8 291 -78 341 -108 18 -11 29 -24 25
-30 -22 -37 -327 -149 -403 -149 -94 0 -210 86 -198 148 3 15 1 19 -7 14 -6
-5 -58 -44 -116 -87 -58 -43 -109 -81 -113 -85 -5 -4 11 -6 35 -3 93 10 433
-104 412 -138 -10 -17 -139 -77 -243 -113 -129 -45 -186 -47 -261 -8 -62 31
-93 69 -93 112 0 16 -2 30 -4 30 -2 0 -50 -35 -107 -77 l-102 -78 65 -1 c102
-1 348 -84 359 -121 7 -25 -290 -143 -360 -143 -57 0 -125 29 -159 67 -26 31
-30 42 -26 74 l5 38 -81 -60 c-45 -33 -62 -43 -37 -22 24 21 57 49 73 63 l28
25 -31 1 c-16 1 -39 9 -50 19 -30 27 -53 115 -44 171 8 58 83 172 176 269 89
94 92 91 96 -118 3 -123 0 -172 -11 -204 -17 -50 -26 -54 107 52 84 66 87 70
60 73 -66 8 -111 93 -102 195 5 64 43 131 145 256 82 101 117 131 136 112 18
-18 17 -397 -1 -430 -12 -20 -12 -22 0 -15 16 10 248 195 248 198 0 2 -14 1
-30 -2 -98 -14 -158 164 -95 283 36 67 123 180 190 245 44 44 58 52 65 40 15
-24 23 -155 18 -285 -4 -102 -9 -129 -26 -159 -12 -20 -19 -36 -16 -36 2 0 56
42 120 92 l115 93 -33 7 c-88 18 -128 169 -73 277 34 68 133 197 195 255 49
46 53 48 64 30 7 -12 11 -86 11 -209 0 -167 -2 -194 -19 -224 l-18 -35 52 42
c50 40 52 42 54 99 3 71 39 146 91 192 45 39 111 69 253 115 134 43 137 43
194 45 46 1 47 0 38 -23z m-9772 -652 c215 -89 150 -414 -83 -414 -188 0 -286
226 -157 364 58 61 161 83 240 50z m12405 -220 c62 -21 121 -87 137 -154 19
-77 -1 -142 -60 -201 -90 -90 -222 -88 -308 5 -83 90 -82 205 1 293 66 69 141
88 230 57z m-5890 -470 c60 -20 107 -72 107 -119 0 -108 -192 -174 -325 -111
-70 32 -90 58 -90 113 0 40 5 49 37 78 21 18 53 37 70 43 50 15 149 14 201 -4z
m-2008 -194 c21 -22 37 -40 34 -40 -3 0 -23 18 -44 40 -21 22 -37 40 -34 40 3
0 23 -18 44 -40z m3235 -13 c0 -2 -10 -12 -22 -23 l-23 -19 19 23 c18 21 26
27 26 19z m-7485 -51 c162 -95 129 -339 -53 -392 -159 -46 -309 97 -268 255
29 112 114 175 224 166 33 -2 70 -13 97 -29z m7435 10 c0 -2 -8 -10 -17 -17
-16 -13 -17 -12 -4 4 13 16 21 21 21 13z m4472 -217 c80 -41 119 -105 119
-194 0 -119 -96 -215 -216 -215 -229 0 -298 315 -90 411 55 25 135 25 187 -2z
m-4912 -230 c590 -14 1354 -47 1810 -79 74 -6 144 -10 155 -10 14 -1 8 -7 -20
-22 -22 -11 -55 -32 -72 -45 l-33 -25 -267 16 c-283 17 -735 38 -1193 57 -151
6 -663 13 -1138 16 -623 4 -865 9 -867 17 -2 6 -6 28 -10 48 l-6 38 168 3
c256 4 998 -2 1473 -14z m-1688 -35 c2 -25 1 -47 -1 -50 -2 -2 -40 -4 -83 -4
l-79 0 27 50 27 50 53 0 52 0 4 -46z m3828 -59 c-24 -14 -24 -14 22 -15 71 0
306 -48 347 -71 48 -26 153 -111 159 -129 3 -8 -6 -5 -23 8 -21 16 -41 22 -81
22 -63 0 -102 13 -111 37 -3 10 -15 28 -26 41 -18 19 -30 22 -95 22 -75 0 -75
0 -114 -41 -36 -38 -38 -42 -23 -59 10 -11 37 -19 71 -23 31 -3 67 -13 81 -22
23 -15 23 -18 9 -34 -9 -10 -16 -23 -16 -30 0 -22 -28 -23 -97 -2 -37 11 -99
28 -138 37 -77 19 -145 70 -148 112 -2 28 -9 28 -47 -4 -36 -31 -56 -66 -65
-117 -4 -20 -13 -37 -20 -37 -15 0 -36 -98 -28 -130 4 -16 0 -27 -13 -37 -18
-13 -18 -15 -1 -24 27 -16 20 -41 -24 -81 -50 -46 -54 -39 -45 88 9 128 33
239 64 297 28 51 104 127 156 155 46 24 146 51 191 51 40 0 40 0 15 -14z
m-6227 -51 c80 -21 123 -43 183 -97 88 -80 126 -184 140 -391 9 -127 5 -134
-45 -88 -44 40 -51 65 -23 81 16 9 16 11 -2 24 -13 10 -17 21 -13 37 8 32 -13
130 -28 130 -7 0 -16 17 -20 37 -9 51 -29 86 -65 117 -38 32 -45 32 -47 4 -3
-42 -71 -93 -148 -112 -39 -9 -100 -26 -136 -37 -80 -23 -88 -24 -96 -1 -3 9
-12 25 -20 34 -13 15 -12 18 10 33 14 9 50 19 81 22 34 4 61 12 71 23 15 17
13 21 -23 59 -39 41 -39 41 -114 41 -65 0 -77 -3 -95 -22 -11 -13 -23 -31 -26
-41 -9 -24 -48 -37 -111 -37 -40 0 -60 -6 -81 -22 -17 -13 -26 -16 -23 -8 6
18 111 103 159 129 41 23 276 71 347 71 46 1 46 1 22 15 l-25 14 34 1 c18 0
60 -7 94 -16z m6764 -206 c-3 -8 -6 -5 -6 6 -1 11 2 17 5 13 3 -3 4 -12 1 -19z
m-7400 -50 c-3 -8 -6 -5 -6 6 -1 11 2 17 5 13 3 -3 4 -12 1 -19z m6912 -36
c57 -57 58 -58 64 -129 5 -62 3 -74 -14 -94 -11 -13 -17 -29 -14 -37 3 -8 -2
-25 -10 -38 -24 -36 -76 -33 -109 7 -14 17 -26 41 -26 53 0 26 -17 46 -34 40
-34 -13 -96 118 -75 157 6 13 17 18 26 15 9 -4 17 1 20 14 7 28 49 27 56 -1 4
-13 12 -20 24 -17 14 2 17 11 15 35 -3 31 3 53 14 53 3 0 31 -26 63 -58z
m-6353 -38 c0 -29 5 -40 18 -42 11 -2 19 4 23 17 7 28 49 29 56 1 3 -13 11
-18 20 -14 9 3 20 -2 26 -15 21 -39 -41 -170 -75 -157 -17 6 -34 -14 -34 -40
0 -12 -12 -36 -26 -53 -33 -40 -85 -43 -109 -7 -8 13 -13 30 -10 38 3 8 -3 24
-14 37 -17 20 -19 32 -14 94 6 71 7 73 62 129 31 31 61 56 66 54 6 -1 10 -20
11 -42z m5398 24 c21 -5 51 -18 65 -27 14 -10 52 -33 83 -52 66 -38 123 -90
144 -131 21 -40 14 -81 -13 -93 -13 -5 -23 -17 -23 -26 0 -9 -11 -19 -23 -23
-39 -9 -173 -102 -233 -160 -59 -57 -73 -60 -98 -21 -9 13 -24 26 -35 30 -44
14 -51 134 -10 171 27 24 25 60 -3 68 -13 3 -83 9 -157 12 -101 6 -132 4 -127
-4 4 -7 16 -12 28 -12 12 0 22 -8 25 -21 4 -14 11 -18 22 -13 31 13 61 16 86
10 20 -5 25 -11 20 -26 -4 -14 2 -28 20 -46 41 -40 49 -75 31 -119 -18 -43
-21 -86 -6 -101 6 -6 13 -31 15 -55 3 -24 8 -55 11 -68 4 -17 -10 -55 -43
-122 l-48 -98 -60 -20 c-147 -49 -334 -81 -420 -71 -41 4 -55 9 -42 14 9 5 17
14 17 22 0 10 -10 12 -45 7 -37 -5 -46 -3 -51 12 -5 13 0 24 17 38 23 18 23
19 4 33 -10 8 -22 14 -26 14 -18 0 -16 32 3 50 l22 20 -27 0 c-14 0 -29 -5
-32 -11 -5 -7 -15 -3 -30 11 l-23 22 -16 -30 c-17 -33 -34 -42 -76 -42 -16 0
-30 -6 -33 -12 -12 -37 -93 91 -99 157 -3 38 -1 40 26 43 16 2 44 15 61 28 18
13 37 24 43 24 16 0 102 60 102 70 0 5 -9 14 -20 20 -12 6 -20 21 -20 35 0 25
-14 33 -25 15 -8 -13 -65 -13 -65 -1 0 16 155 164 199 191 23 14 72 45 109 68
97 64 201 114 215 105 22 -13 61 -2 92 27 34 32 74 50 112 50 14 0 41 10 60
21 59 37 191 45 297 17z m-4231 -64 c27 -13 59 -24 72 -24 36 0 77 -18 110
-50 31 -29 70 -40 92 -27 14 9 111 -38 203 -98 36 -23 77 -49 92 -56 15 -8 59
-40 97 -73 58 -48 71 -64 71 -88 0 -16 -6 -31 -15 -34 -8 -4 -15 -16 -15 -29
0 -12 -10 -29 -22 -38 -22 -14 -22 -15 -5 -34 9 -11 17 -25 17 -31 0 -28 -27
-20 -104 32 -46 31 -91 56 -101 56 -9 0 -19 9 -22 20 -6 21 -28 27 -38 10 -3
-5 -30 -10 -60 -10 -29 0 -82 -9 -118 -20 -36 -11 -72 -17 -81 -14 -9 4 -18 0
-22 -10 -3 -8 -41 -51 -83 -93 -44 -45 -90 -103 -106 -135 l-30 -57 -23 37
c-16 27 -21 46 -17 72 3 19 7 53 10 74 2 22 9 44 15 50 15 15 12 58 -6 101
-18 44 -10 79 31 119 18 18 24 32 20 46 -10 31 50 40 106 16 11 -5 18 -1 22
13 3 13 13 21 25 21 12 0 24 5 28 12 5 8 -26 10 -127 4 -74 -3 -144 -9 -156
-12 -29 -8 -31 -44 -4 -68 41 -37 34 -157 -10 -171 -11 -4 -26 -17 -35 -30
-25 -39 -39 -36 -98 21 -60 58 -194 151 -233 160 -12 4 -23 14 -23 23 0 9 -10
21 -22 26 -34 15 -35 61 -3 110 28 43 100 101 179 144 27 14 59 32 72 39 67
37 240 35 317 -4z m6627 -69 c147 -26 265 -101 276 -176 8 -54 -6 -65 -54 -44
-24 11 -38 23 -35 31 2 7 -5 15 -16 19 -23 7 -44 -2 -36 -15 3 -5 -5 -10 -17
-12 -24 -4 -24 -4 100 -59 25 -11 42 -25 39 -32 -2 -6 -10 -11 -17 -9 -7 1
-19 -3 -26 -9 -12 -10 -11 -14 9 -28 14 -9 37 -25 53 -35 16 -11 41 -31 56
-44 24 -22 28 -23 34 -9 3 10 4 24 1 32 -11 27 16 28 40 1 23 -28 33 -96 13
-96 -5 0 -10 -17 -10 -37 l0 -37 -34 37 c-18 20 -38 37 -44 37 -6 0 -12 10
-14 23 -2 12 -10 22 -18 22 -8 0 -26 8 -40 18 -13 9 -29 17 -34 17 -5 0 -17 7
-26 15 -14 12 -23 13 -45 5 -32 -12 -55 1 -55 32 0 17 -4 18 -37 11 -21 -4
-94 -7 -163 -6 l-125 1 38 -33 c31 -27 37 -38 35 -66 -1 -18 3 -34 9 -36 7 -3
27 -14 45 -27 34 -23 44 -45 33 -74 -6 -16 -7 -16 -19 1 -11 15 -15 15 -25 3
-9 -11 -8 -17 4 -29 21 -22 19 -32 -12 -46 -25 -12 -30 -10 -51 14 -13 15 -21
33 -19 39 3 6 8 19 12 28 5 13 0 21 -19 29 -32 15 -41 8 -26 -21 8 -15 9 -25
2 -32 -17 -17 -66 14 -86 55 -15 31 -23 38 -44 35 -20 -2 -28 -11 -34 -37 -6
-20 -17 -35 -29 -38 -15 -4 -17 -8 -8 -19 8 -10 8 -14 0 -14 -18 0 -12 -29 8
-40 15 -8 22 -7 28 4 7 12 17 8 56 -20 46 -34 48 -36 32 -54 -11 -12 -14 -24
-8 -34 10 -18 151 -90 238 -120 46 -17 61 -27 65 -46 4 -16 29 -41 68 -68 52
-37 60 -46 50 -60 -25 -39 -128 -116 -206 -154 l-82 -42 -113 27 c-82 19 -116
32 -126 47 -16 24 -71 28 -71 5 0 -8 -16 -21 -35 -30 -19 -9 -39 -23 -45 -30
-9 -11 -20 -8 -55 20 -24 18 -65 41 -92 50 -60 22 -78 42 -100 112 -17 55 -17
56 2 67 11 6 34 25 50 42 25 25 37 30 61 27 20 -3 35 1 43 11 8 10 29 16 54
16 22 0 56 5 74 12 50 18 68 3 68 -58 0 -48 1 -49 30 -49 30 0 30 1 30 55 l0
55 40 0 c26 0 40 4 39 13 -1 6 -2 26 -2 42 -3 47 -34 72 -81 64 -33 -5 -41 -3
-53 15 -9 14 -23 21 -45 21 -22 0 -44 10 -66 30 -19 17 -40 30 -46 30 -17 0
-13 21 7 36 13 9 14 16 6 24 -18 18 -49 8 -52 -17 -2 -15 -14 -24 -46 -32 -24
-6 -50 -13 -57 -16 -8 -3 -20 -1 -27 3 -22 15 33 214 72 260 71 82 105 117
111 111 11 -12 -14 -55 -68 -115 -52 -57 -54 -61 -36 -72 29 -19 83 20 75 54
-4 13 -1 26 6 31 15 9 74 32 103 39 46 12 65 27 59 46 -3 10 -7 43 -9 73 -2
49 0 58 32 95 19 22 54 51 77 63 36 19 54 22 154 20 61 -2 112 0 112 3 0 3
-13 10 -30 15 -34 12 -38 23 -12 38 23 14 32 13 132 -4z m-9169 -45 c27 -15
24 -26 -11 -39 -16 -5 -30 -12 -30 -15 0 -3 51 -5 113 -3 99 2 117 -1 153 -20
23 -12 58 -41 77 -63 32 -37 34 -46 32 -95 -2 -30 -6 -63 -9 -73 -6 -19 13
-34 59 -46 29 -7 88 -30 103 -39 7 -5 10 -18 6 -31 -8 -34 46 -73 75 -54 18
11 16 15 -36 72 -54 60 -79 103 -68 115 6 6 40 -29 111 -111 39 -46 94 -245
72 -260 -7 -4 -19 -6 -27 -3 -7 3 -33 10 -57 16 -32 8 -44 17 -46 32 -3 25
-34 35 -52 17 -8 -8 -7 -15 7 -24 19 -15 23 -36 6 -36 -6 0 -27 -13 -46 -30
-22 -20 -44 -30 -66 -30 -22 0 -36 -7 -45 -21 -12 -18 -20 -20 -53 -15 -47 8
-78 -17 -80 -64 -1 -16 -2 -36 -3 -42 -1 -9 13 -13 39 -13 l40 0 0 -55 c0 -54
0 -55 30 -55 29 0 30 1 30 49 0 61 18 76 68 58 18 -7 52 -12 74 -12 25 0 46
-6 54 -16 8 -10 23 -14 43 -11 24 3 36 -2 61 -27 16 -17 39 -36 50 -42 19 -11
19 -12 2 -67 -22 -70 -40 -90 -100 -112 -27 -9 -68 -32 -92 -50 -35 -28 -46
-31 -55 -20 -6 7 -26 21 -45 30 -19 9 -35 22 -35 30 0 23 -55 19 -71 -5 -10
-15 -44 -28 -126 -47 l-113 -27 -82 42 c-78 38 -181 115 -206 154 -10 14 -2
23 50 60 39 27 64 52 68 68 4 19 19 29 65 46 87 30 228 102 238 120 6 10 3 22
-8 34 -16 18 -14 20 32 54 39 28 49 32 56 20 6 -11 13 -12 28 -4 20 11 26 40
8 40 -8 0 -8 4 0 14 9 11 7 15 -8 19 -12 3 -23 18 -29 38 -6 26 -14 35 -34 37
-21 3 -29 -4 -44 -35 -20 -41 -69 -72 -86 -55 -7 7 -6 17 2 32 15 29 6 36 -26
21 -17 -7 -24 -17 -20 -26 3 -8 9 -21 12 -29 3 -7 -5 -26 -18 -41 -21 -24 -26
-26 -51 -14 -31 14 -33 24 -12 46 12 12 13 18 4 29 -10 12 -14 12 -25 -3 -12
-17 -13 -17 -19 -1 -11 29 -1 51 33 74 18 13 38 24 45 27 6 2 10 18 9 36 -2
28 4 39 35 66 l38 33 -125 -1 c-69 -1 -142 2 -162 6 -34 7 -38 6 -38 -11 0
-31 -23 -44 -55 -32 -22 8 -31 7 -45 -5 -9 -8 -21 -15 -26 -15 -5 0 -21 -8
-34 -17 -14 -10 -32 -18 -40 -18 -8 0 -16 -10 -18 -22 -2 -13 -8 -23 -14 -23
-6 0 -26 -17 -44 -37 l-34 -37 0 37 c0 20 -4 37 -10 37 -20 0 -10 68 13 96 24
27 51 26 40 -1 -3 -8 -2 -22 1 -32 6 -14 10 -13 34 9 15 13 40 33 56 44 16 10
39 26 53 35 20 14 21 18 9 28 -7 6 -19 10 -26 9 -7 -2 -15 3 -17 9 -3 7 14 21
39 32 124 55 124 55 100 59 -12 2 -20 7 -17 12 8 13 -13 22 -36 15 -11 -4 -18
-12 -16 -19 3 -8 -11 -20 -35 -31 -48 -21 -62 -10 -54 44 11 73 128 150 266
175 97 17 117 18 141 6z m10020 -2 c54 -16 113 -69 134 -120 69 -172 -85 -346
-260 -293 -189 56 -209 318 -31 401 57 26 99 30 157 12z m-1730 -95 c-18 -35
-20 -36 -21 -13 0 28 31 81 37 63 3 -7 -5 -29 -16 -50z m-7521 -62 c-1 -25 -1
-25 -20 9 -26 47 -26 73 0 41 11 -13 20 -35 20 -50z m6113 -128 c-3 -10 -32
-35 -66 -56 -67 -43 -59 -25 16 35 56 44 57 44 50 21z m-4657 -98 l49 -45 -62
37 c-34 21 -63 46 -66 55 -7 25 18 10 79 -47z m1133 -132 c2 -2 -5 -3 -17 -3
-14 0 -22 6 -22 16 0 14 3 15 18 3 9 -7 19 -15 21 -16z m4439 15 c7 -7 12 -24
12 -39 0 -15 7 -29 15 -33 9 -3 15 -19 15 -41 0 -21 5 -35 13 -35 16 0 49 -59
41 -72 -4 -6 -13 0 -21 16 -9 17 -22 26 -37 26 -29 0 -39 22 -25 57 8 21 7 28
-6 35 -8 5 -15 19 -15 32 0 13 -7 29 -15 36 -8 7 -15 16 -15 21 0 13 24 11 38
-3z m-6528 -47 c0 -5 -7 -14 -15 -21 -8 -7 -15 -23 -15 -36 0 -13 -7 -27 -15
-32 -13 -7 -14 -14 -6 -35 14 -35 4 -57 -25 -57 -15 0 -28 -9 -37 -26 -8 -16
-17 -22 -21 -16 -8 13 25 72 42 72 7 0 12 14 12 35 0 22 6 38 15 41 8 4 15 18
15 33 0 15 5 32 12 39 14 14 38 16 38 3z m5660 -36 c18 -13 67 -39 109 -56 91
-38 121 -57 121 -75 0 -25 -24 -25 -74 1 -50 26 -110 33 -121 15 -3 -5 -26
-10 -50 -10 -51 0 -64 -13 -39 -41 16 -17 16 -22 4 -29 -9 -6 -14 -21 -12 -40
4 -33 -3 -37 -27 -16 -27 23 -61 30 -61 12 0 -24 -28 -19 -41 6 -20 37 -34 46
-62 41 -23 -5 -29 -1 -42 31 -8 19 -15 42 -15 51 0 22 37 19 58 -5 17 -21 17
-21 42 10 17 21 41 35 75 44 41 10 51 17 53 37 5 28 20 49 36 49 7 0 27 -11
46 -25z m-7597 -137 c4 -62 16 -155 26 -207 11 -52 18 -98 16 -102 -10 -15
-83 -20 -130 -8 -87 22 -165 122 -165 211 0 108 108 216 216 218 l31 0 6 -112z
m2835 100 c5 -7 12 -24 14 -37 2 -20 12 -27 53 -37 34 -9 58 -23 75 -44 25
-31 25 -31 42 -10 21 24 58 27 58 5 0 -9 -7 -32 -15 -51 -13 -32 -19 -36 -42
-31 -28 5 -42 -4 -62 -41 -13 -25 -41 -30 -41 -6 0 18 -34 11 -61 -12 -24 -21
-31 -17 -27 16 2 19 -3 34 -12 40 -12 7 -12 12 4 29 25 28 12 41 -39 41 -24 0
-47 5 -50 10 -11 18 -71 11 -121 -15 -50 -26 -74 -26 -74 -1 0 18 30 37 121
75 42 17 91 43 109 56 38 28 53 31 68 13z m4842 -172 c31 -7 95 -62 82 -70 -6
-3 -22 -2 -37 4 -14 5 -37 10 -50 10 -15 0 -31 10 -41 25 -16 25 -12 47 9 40
7 -2 23 -6 37 -9z m-4944 -80 c-10 -16 -26 -26 -41 -26 -13 0 -36 -5 -50 -10
-15 -6 -31 -7 -37 -4 -13 8 51 63 82 70 14 3 30 7 35 9 21 6 27 -15 11 -39z
m5132 -38 c21 -21 14 -38 -16 -38 -36 0 -44 8 -31 31 11 22 30 24 47 7z m-709
-81 c1 32 20 38 43 15 18 -17 19 -23 8 -54 -11 -30 -10 -39 9 -76 26 -52 26
-60 -1 -64 -18 -2 -24 -10 -26 -40 -4 -42 21 -98 43 -98 8 0 19 -9 25 -20 16
-30 48 -26 52 8 3 26 5 27 57 25 30 -2 73 3 95 11 31 10 67 12 144 6 56 -4
106 -10 109 -14 3 -3 -2 -14 -11 -25 -11 -12 -14 -21 -7 -26 19 -11 12 -25
-16 -37 l-28 -12 24 -4 c28 -5 52 20 81 86 21 47 40 52 69 21 l19 -21 45 26
c63 38 84 62 70 85 -16 25 2 41 44 41 28 0 33 4 33 24 0 28 16 36 78 37 26 0
56 4 66 8 18 7 18 8 3 14 -21 8 -22 43 -1 51 8 3 31 -1 52 -9 32 -14 40 -14
74 0 51 20 75 19 105 -5 33 -26 49 -25 78 5 29 28 31 25 10 -16 -9 -16 -25
-59 -36 -96 -17 -55 -31 -76 -84 -129 -34 -34 -81 -90 -103 -124 -60 -93 -175
-169 -362 -243 -220 -85 -435 -41 -631 130 -30 26 -70 59 -87 73 -30 23 -35
35 -57 143 -25 117 -31 221 -18 313 l6 49 13 -40 c8 -27 12 -33 13 -18z
m-4610 24 c13 -23 5 -31 -31 -31 -30 0 -37 17 -16 38 17 17 36 15 47 -7z
m3499 -94 c3 -12 -3 -17 -20 -17 -17 0 -23 -6 -24 -25 -2 -22 1 -24 24 -18 15
3 32 6 39 6 7 0 13 4 13 7 0 4 20 -2 45 -13 37 -17 45 -26 45 -47 0 -14 7 -35
16 -46 14 -18 15 -18 4 4 -13 26 -4 45 10 22 5 -8 25 -15 43 -16 23 -1 45 -10
63 -28 33 -30 29 -33 -12 -11 -25 13 -30 13 -40 0 -9 -12 -12 -12 -25 1 -13
13 -15 10 -11 -20 5 -41 -8 -51 -34 -28 -29 25 -44 25 -45 0 -1 -16 -4 -12 -9
12 -5 21 -5 36 1 38 5 2 9 11 9 20 1 15 2 15 11 -1 5 -9 7 -22 4 -27 -3 -6 -1
-10 4 -10 14 0 14 45 1 71 -12 21 -50 26 -50 7 -1 -7 -7 -2 -14 11 -17 30 -25
17 -24 -38 0 -23 -5 -48 -11 -54 -6 -6 -11 -20 -11 -31 0 -15 -3 -17 -9 -8 -4
7 -6 24 -4 36 3 13 0 27 -6 30 -17 11 -13 25 7 21 13 -2 18 4 20 21 1 18 -4
25 -23 30 -29 7 -46 -2 -39 -21 4 -8 -4 -31 -16 -52 -14 -24 -23 -58 -25 -101
-3 -47 -10 -73 -25 -94 -12 -17 -26 -44 -31 -61 -10 -35 -2 -80 13 -71 15 10
29 -18 16 -33 -17 -20 -25 -15 -32 20 l-7 32 -14 -25 c-8 -14 -14 -33 -15 -43
0 -10 -6 -17 -12 -16 -30 4 -38 -4 -69 -61 -17 -33 -36 -60 -40 -60 -5 0 -15
12 -24 28 l-15 27 6 -27 c5 -21 2 -28 -9 -28 -8 0 -25 -16 -36 -36 -20 -34
-23 -35 -40 -20 -23 21 -36 20 -52 -4 -17 -23 -79 -33 -118 -19 -14 6 -38 22
-53 37 -25 23 -28 24 -28 6 0 -12 -3 -15 -8 -7 -4 6 -4 62 -1 125 3 62 5 115
3 117 -12 14 -62 -198 -50 -217 2 -4 1 -14 -5 -22 -14 -23 -11 54 5 130 8 36
12 68 9 73 -2 4 1 7 6 7 6 0 10 3 9 8 -2 10 13 65 22 77 3 6 13 30 20 54 10
30 33 61 75 102 63 61 149 122 159 112 3 -4 6 1 6 10 0 36 123 96 300 148 106
30 123 31 128 6z m4256 -21 c-3 -15 -8 -25 -11 -23 -2 3 -1 17 3 31 3 15 8 25
11 23 2 -3 1 -17 -3 -31z m-8391 -26 c8 0 26 9 40 20 30 24 54 25 105 5 34
-14 42 -14 74 0 21 8 44 12 52 9 21 -8 20 -43 -1 -51 -15 -6 -15 -7 3 -14 10
-4 40 -8 66 -8 62 -1 78 -9 78 -37 0 -20 5 -24 33 -24 42 0 60 -16 44 -41 -14
-23 7 -47 70 -85 l45 -26 19 21 c29 31 48 26 69 -21 29 -66 53 -91 81 -86 l24
4 -27 12 c-29 12 -36 26 -17 37 7 5 4 14 -7 26 -9 11 -14 22 -11 25 3 4 53 10
109 14 77 6 113 4 144 -6 22 -8 65 -13 95 -11 52 2 54 1 57 -25 4 -34 36 -38
52 -8 6 11 17 20 25 20 8 0 21 12 28 26 l14 26 21 -36 c19 -33 21 -42 11 -81
-9 -35 -22 -52 -71 -92 -33 -26 -81 -65 -107 -85 -25 -21 -77 -54 -116 -73
-184 -93 -353 -80 -605 45 -108 54 -176 109 -222 180 -22 34 -69 90 -103 124
-53 53 -67 74 -84 129 -11 37 -27 80 -36 96 -21 41 -19 44 10 16 13 -14 30
-25 38 -25z m7099 16 c102 -19 166 -50 263 -128 113 -92 174 -185 230 -352 53
-158 94 -441 80 -556 -14 -117 -84 -275 -169 -384 -16 -21 -60 -59 -98 -83
-37 -24 -70 -47 -73 -53 -16 -26 -125 -52 -255 -61 -74 -4 -166 -14 -203 -20
-63 -11 -78 -10 -186 13 -161 36 -243 71 -306 133 -28 28 -59 61 -68 75 -25
38 48 -117 78 -164 l26 -41 -41 45 c-59 65 -96 148 -132 301 -29 120 -32 150
-32 294 -1 132 3 178 22 263 45 201 116 376 191 469 93 115 276 220 442 252
66 13 145 12 231 -3z m-7347 -67 c145 -45 288 -136 366 -232 75 -93 146 -268
191 -469 19 -85 23 -131 22 -263 0 -144 -3 -174 -32 -294 -36 -153 -73 -236
-132 -301 l-41 -45 26 41 c30 47 103 202 78 164 -9 -14 -40 -47 -68 -75 -63
-62 -145 -97 -306 -133 -107 -23 -124 -25 -181 -14 -35 7 -124 16 -198 21
-129 9 -239 35 -255 61 -3 6 -36 29 -73 53 -38 24 -82 62 -98 83 -85 109 -155
267 -169 384 -8 69 9 258 35 384 35 169 92 314 164 415 40 56 176 166 244 198
118 55 292 64 427 22z m7765 -28 c0 -4 -6 -15 -13 -26 -11 -14 -21 -16 -50
-11 -45 8 -47 23 -6 40 31 13 69 11 69 -3z m-8383 -68 c3 -7 -12 -15 -33 -19
-30 -5 -40 -3 -51 11 -7 11 -13 22 -13 26 0 24 89 7 97 -18z m5307 -19 c3 -8
2 -12 -4 -9 -6 3 -10 10 -10 16 0 14 7 11 14 -7z m26 -55 c0 -6 -4 -7 -10 -4
-5 3 -10 11 -10 16 0 6 5 7 10 4 6 -3 10 -11 10 -16z m719 -126 c59 -54 127
-114 152 -133 154 -123 219 -256 219 -456 0 -241 -81 -411 -227 -476 -52 -23
-129 -26 -173 -8 -17 7 -33 11 -35 8 -3 -2 2 -29 11 -59 33 -113 30 -221 -12
-365 -5 -18 0 -22 27 -28 49 -9 123 -90 138 -150 39 -157 -98 -298 -257 -265
-93 19 -172 114 -172 207 0 21 -3 22 -42 15 -90 -16 -238 -7 -331 21 -144 43
-210 82 -316 189 l-93 94 -42 -41 c-83 -83 -193 -120 -306 -104 -30 5 -92 26
-137 48 -67 33 -95 55 -162 126 -79 85 -138 184 -155 260 -6 25 -16 35 -59 53
-52 23 -52 23 -24 31 16 5 39 5 53 0 33 -13 31 3 -3 29 -19 13 -23 20 -12 21
8 0 21 -6 28 -12 11 -11 12 -1 7 58 l-6 71 60 37 c211 130 491 124 708 -17 37
-24 83 -63 101 -85 l33 -42 41 49 c73 84 179 163 257 191 l36 13 1 93 c5 265
126 448 408 619 72 43 137 84 145 92 8 7 18 13 23 13 5 0 57 -44 116 -97z
m-842 -25 c-3 -8 -6 -5 -6 6 -1 11 2 17 5 13 3 -3 4 -12 1 -19z m60 -40 c-3
-7 -5 -2 -5 12 0 14 2 19 5 13 2 -7 2 -19 0 -25z m-5787 -222 c46 -31 51 -36
29 -36 -41 0 -112 42 -146 88 -46 61 -41 70 15 23 26 -21 72 -55 102 -75z
m5340 32 c0 -16 -3 -19 -11 -11 -6 6 -8 16 -5 22 11 17 16 13 16 -11z m3790
-78 c0 -18 -27 -64 -48 -83 -19 -17 -20 -17 -26 5 -10 38 -7 76 7 81 23 10 67
7 67 -3z m-4553 -661 c26 -10 27 -12 8 -19 -37 -15 -54 -12 -48 10 6 23 4 23
40 9z m-2861 -90 c42 -25 81 -89 90 -147 20 -126 -85 -245 -216 -245 -74 0
-175 51 -142 72 19 12 164 196 182 231 9 19 23 52 29 73 7 20 15 37 18 37 3 0
21 -9 39 -21z m2811 -96 c13 -14 23 -21 23 -14 0 8 9 7 31 -4 16 -9 43 -18 60
-20 37 -5 59 -27 59 -59 0 -21 -5 -26 -24 -26 -14 0 -28 5 -31 10 -8 13 -101
59 -180 90 -70 27 -80 34 -70 50 5 8 24 10 59 6 38 -5 57 -13 73 -33z m2878
26 c27 -7 63 -28 90 -51 114 -101 90 -284 -46 -352 -88 -43 -172 -31 -245 36
-129 119 -72 327 101 369 44 10 52 10 100 -2z m-2938 -61 c29 -10 62 -27 73
-36 21 -17 21 -18 -30 -19 -35 -2 -52 2 -56 11 -3 8 -20 17 -37 20 -18 4 -41
13 -52 22 -17 13 -18 16 -5 24 16 10 26 8 107 -22z m-126 -69 c84 -25 167 -89
116 -89 -7 0 -24 -7 -39 -14 -24 -13 -28 -13 -28 0 0 8 -9 14 -19 14 -11 0
-23 5 -26 10 -3 6 -19 10 -34 10 -51 0 -89 12 -93 29 -8 27 2 41 28 41 13 0
24 5 24 11 0 6 6 9 14 6 8 -3 34 -11 57 -18z m269 -9 c0 -5 -4 -10 -10 -10 -5
0 -10 5 -10 10 0 6 5 10 10 10 6 0 10 -4 10 -10z m-37 -57 c-7 -2 -19 -2 -25
0 -7 3 -2 5 12 5 14 0 19 -2 13 -5z m-2017 -143 c36 -33 77 -66 93 -75 74 -38
40 -191 -57 -260 -40 -27 -51 -30 -122 -30 -71 0 -82 3 -122 30 -169 120 -94
389 111 394 28 1 44 -9 97 -59z m1600 -30 c18 0 18 -9 -3 -32 -34 -38 -65 -13
-37 30 10 16 19 22 22 14 2 -6 10 -12 18 -12z m31 14 c-3 -3 -12 -4 -19 -1 -8
3 -5 6 6 6 11 1 17 -2 13 -5z m-690 -199 c202 -101 128 -406 -98 -405 -125 1
-219 96 -219 221 0 75 66 168 140 198 47 19 123 13 177 -14z m2119 -34 c72
-33 124 -117 124 -203 0 -53 -48 -138 -97 -172 -33 -23 -57 -31 -103 -34 -190
-14 -303 191 -190 346 55 77 174 105 266 63z m-959 -72 c207 -100 135 -408
-96 -409 -104 0 -181 60 -207 162 -46 175 140 326 303 247z"/>
<path d="M12810 11089 l0 -322 78 7 c146 13 200 40 241 121 24 46 26 59 26
190 0 127 -2 144 -24 189 -39 78 -111 115 -263 131 l-58 6 0 -322z"/>
<path d="M14997 9294 c-14 -14 -7 -35 11 -32 9 2 17 10 17 17 0 16 -18 25 -28
15z"/>
<path d="M14705 9261 c-7 -12 12 -24 25 -16 11 7 4 25 -10 25 -5 0 -11 -4 -15
-9z"/>
<path d="M14884 9216 c-8 -22 3 -33 18 -18 9 9 9 15 0 24 -9 9 -13 7 -18 -6z"/>
<path d="M8565 9241 c-8 -15 3 -31 21 -31 9 0 14 7 12 17 -4 20 -24 28 -33 14z"/>
<path d="M8855 9211 c-7 -12 12 -24 25 -16 11 7 4 25 -10 25 -5 0 -11 -4 -15
-9z"/>
<path d="M8685 9170 c-7 -12 2 -30 16 -30 12 0 12 27 0 35 -5 3 -12 1 -16 -5z"/>
<path d="M14970 8926 c0 -7 7 -19 15 -26 12 -10 16 -9 21 3 3 9 3 21 -1 27 -9
15 -35 12 -35 -4z"/>
<path d="M14855 8909 c-10 -14 5 -49 20 -49 18 0 26 14 19 33 -7 19 -31 29
-39 16z"/>
<path d="M8584 8875 c-3 -8 -3 -19 1 -25 9 -14 35 6 35 26 0 19 -29 18 -36 -1z"/>
<path d="M8706 8854 c-19 -19 -17 -38 6 -42 19 -4 35 35 20 50 -6 6 -15 3 -26
-8z"/>
<path d="M13670 8950 c0 -5 5 -10 10 -10 6 0 10 5 10 10 0 6 -4 10 -10 10 -5
0 -10 -4 -10 -10z"/>
<path d="M13990 8935 c0 -8 7 -15 15 -15 8 0 15 7 15 15 0 8 -7 15 -15 15 -8
0 -15 -7 -15 -15z"/>
<path d="M13696 8879 c-11 -16 -21 -20 -39 -15 -32 8 -78 -26 -60 -44 11 -12
43 -10 121 6 19 3 43 2 55 -4 12 -6 44 -13 70 -15 32 -3 55 -12 68 -26 23 -24
42 -27 58 -7 15 17 6 23 -47 32 -32 5 -42 11 -42 25 0 20 -28 39 -58 39 -11 0
-25 7 -32 15 -19 23 -76 19 -94 -6z"/>
<path d="M13428 8798 c-4 -12 14 -38 26 -38 3 0 6 11 6 25 0 26 -25 36 -32 13z"/>
<path d="M13400 8745 c0 -10 7 -15 18 -13 21 4 19 22 -2 26 -10 2 -16 -3 -16
-13z"/>
<path d="M14014 8722 c4 -7 21 -12 37 -12 22 0 32 -7 41 -24 11 -25 36 -41 46
-31 3 3 0 11 -6 17 -7 7 -12 20 -12 30 0 14 -8 18 -32 18 -18 0 -44 3 -57 7
-17 4 -22 3 -17 -5z"/>
<path d="M13322 8699 c2 -6 8 -10 13 -10 5 0 11 4 13 10 2 6 -4 11 -13 11 -9
0 -15 -5 -13 -11z"/>
<path d="M13610 8605 c0 -9 5 -15 11 -13 6 2 11 8 11 13 0 5 -5 11 -11 13 -6
2 -11 -4 -11 -13z"/>
<path d="M13107 8603 c-4 -3 -7 -12 -7 -20 0 -17 26 -17 33 1 8 21 -11 35 -26
19z"/>
<path d="M13300 8525 c0 -10 7 -15 18 -13 21 4 19 22 -2 26 -10 2 -16 -3 -16
-13z"/>
<path d="M13581 8476 c-9 -10 -8 -16 4 -26 19 -16 41 1 32 24 -8 20 -21 20
-36 2z"/>
<path d="M13775 8449 c-4 -6 -1 -15 6 -20 21 -13 31 -11 27 8 -4 20 -24 28
-33 12z"/>
<path d="M13360 8430 c0 -5 7 -10 15 -10 8 0 15 5 15 10 0 6 -7 10 -15 10 -8
0 -15 -4 -15 -10z"/>
<path d="M13040 8386 c0 -8 4 -17 9 -20 11 -7 33 18 24 27 -12 12 -33 7 -33
-7z"/>
<path d="M13472 8284 c4 -21 22 -23 26 -1 2 10 -3 17 -13 17 -10 0 -15 -6 -13
-16z"/>
<path d="M13125 8260 c-10 -16 16 -43 28 -31 11 11 2 41 -12 41 -5 0 -13 -5
-16 -10z"/>
<path d="M13672 8168 c6 -18 28 -21 28 -4 0 9 -7 16 -16 16 -9 0 -14 -5 -12
-12z"/>
<path d="M13542 8078 c6 -18 28 -21 28 -4 0 9 -7 16 -16 16 -9 0 -14 -5 -12
-12z"/>
<path d="M13492 8048 c5 -15 28 -18 29 -3 0 6 -7 12 -17 13 -10 3 -15 -1 -12
-10z"/>
<path d="M9900 8900 c0 -5 5 -10 10 -10 6 0 10 5 10 10 0 6 -4 10 -10 10 -5 0
-10 -4 -10 -10z"/>
<path d="M9570 8885 c0 -8 7 -15 15 -15 8 0 15 7 15 15 0 8 -7 15 -15 15 -8 0
-15 -7 -15 -15z"/>
<path d="M9800 8835 c-7 -8 -21 -15 -32 -15 -30 0 -58 -19 -58 -39 0 -14 -10
-20 -42 -25 -53 -9 -62 -15 -47 -32 16 -20 35 -17 58 7 13 14 36 23 68 26 26
2 58 9 70 15 12 6 36 7 55 4 78 -16 110 -18 121 -6 18 18 -28 52 -60 44 -18
-5 -28 -1 -39 15 -18 25 -75 29 -94 6z"/>
<path d="M10130 8735 c0 -28 6 -31 24 -12 15 15 10 37 -10 37 -8 0 -14 -10
-14 -25z"/>
<path d="M10157 8704 c-9 -10 2 -24 19 -24 8 0 14 7 14 15 0 15 -21 21 -33 9z"/>
<path d="M9513 8673 c-33 -3 -43 -8 -43 -22 0 -9 -5 -22 -12 -29 -6 -6 -9 -14
-6 -17 10 -10 35 6 46 31 9 17 19 24 41 24 16 0 33 5 36 10 3 6 0 9 -7 8 -7
-1 -32 -3 -55 -5z"/>
<path d="M10242 8649 c2 -6 8 -10 13 -10 5 0 11 4 13 10 2 6 -4 11 -13 11 -9
0 -15 -5 -13 -11z"/>
<path d="M9957 8564 c-8 -8 1 -24 14 -24 5 0 9 7 9 15 0 15 -12 20 -23 9z"/>
<path d="M10458 8554 c-11 -10 3 -34 19 -34 8 0 13 7 11 17 -3 18 -20 27 -30
17z"/>
<path d="M9784 8395 c-4 -9 -4 -18 -2 -21 9 -8 39 8 35 19 -6 18 -27 20 -33 2z"/>
<path d="M16250 8720 c-11 -7 -12 -12 -3 -21 15 -15 43 -5 43 16 0 17 -18 19
-40 5z"/>
<path d="M15962 8298 c7 -19 38 -22 38 -4 0 10 -9 16 -21 16 -12 0 -19 -5 -17
-12z"/>
<path d="M16290 7915 c0 -21 85 -69 105 -58 13 8 13 12 -6 32 -35 37 -99 55
-99 26z"/>
<path d="M16326 7785 c-13 -36 24 -61 52 -33 9 9 8 16 -5 30 -20 22 -39 23
-47 3z"/>
<path d="M16180 7686 c0 -18 31 -29 44 -16 8 8 7 14 -4 20 -22 14 -40 12 -40
-4z"/>
<path d="M7310 8665 c0 -21 28 -31 43 -16 9 9 8 14 -3 21 -22 14 -40 12 -40
-5z"/>
<path d="M7600 8244 c0 -9 7 -14 17 -12 25 5 28 28 4 28 -12 0 -21 -6 -21 -16z"/>
<path d="M7246 7865 c-41 -22 -59 -47 -40 -58 10 -6 31 1 59 18 70 40 52 77
-19 40z"/>
<path d="M7227 7732 c-13 -14 -14 -21 -5 -30 28 -28 65 -3 52 33 -8 20 -27 19
-47 -3z"/>
<path d="M7380 7640 c-11 -6 -12 -12 -4 -20 13 -13 44 -2 44 16 0 16 -18 18
-40 4z"/>
<path d="M14980 7670 c0 -26 46 -38 67 -17 22 21 8 37 -33 37 -27 0 -34 -4
-34 -20z"/>
<path d="M14474 7485 c-9 -23 4 -47 23 -43 26 5 28 35 3 48 -16 9 -21 8 -26
-5z"/>
<path d="M13815 7460 c-3 -6 1 -13 10 -16 19 -8 30 0 20 15 -8 14 -22 14 -30
1z"/>
<path d="M14360 7370 c-12 -7 -9 -14 17 -40 18 -18 37 -29 43 -25 17 11 11 54
-9 65 -24 12 -32 12 -51 0z"/>
<path d="M14730 7345 c-10 -12 -9 -16 5 -21 23 -9 40 10 22 25 -11 9 -17 8
-27 -4z"/>
<path d="M12535 7683 c-4 -13 -11 -23 -16 -23 -5 0 -9 -7 -9 -15 0 -9 -7 -27
-16 -40 -20 -31 -2 -33 20 -2 10 14 14 16 10 5 -9 -27 12 -21 31 8 11 17 13
29 7 33 -5 3 -12 17 -15 31 -4 25 -4 25 -12 3z"/>
<path d="M12330 7629 c0 -5 5 -7 10 -4 6 3 10 8 10 11 0 2 -4 4 -10 4 -5 0
-10 -5 -10 -11z"/>
<path d="M12516 7541 c-4 -7 -5 -15 -2 -18 9 -9 19 4 14 18 -4 11 -6 11 -12 0z"/>
<path d="M8534 7629 c-3 -6 1 -18 9 -26 21 -21 67 -9 67 17 0 16 -7 20 -34 20
-19 0 -38 -5 -42 -11z"/>
<path d="M9085 7436 c-11 -8 -16 -19 -12 -30 9 -22 41 -17 45 8 6 27 -11 38
-33 22z"/>
<path d="M9745 7409 c-10 -15 1 -23 20 -15 9 3 13 10 10 16 -8 13 -22 13 -30
-1z"/>
<path d="M9178 7319 c-20 -11 -24 -54 -8 -64 6 -4 25 7 43 25 26 26 29 33 17
40 -19 12 -31 12 -52 -1z"/>
<path d="M8830 7295 c-10 -12 -9 -16 5 -21 23 -9 40 10 22 25 -11 9 -17 8 -27
-4z"/>
<path d="M12295 6380 c-3 -5 8 -16 25 -25 36 -19 38 -16 5 13 -13 12 -27 17
-30 12z"/>
</g>
</svg>
